<?xml version="1.0" encoding="UTF-8"?>
<svg id="b" data-name="Layer 2" xmlns="http://www.w3.org/2000/svg" viewBox="0 0 327.77 282.99">
  <defs>
    <style>
      .d {
        stroke-width: 0px;
      }
    </style>
  </defs>
  <g id="c" data-name="Layer 19">
    <g>
      <path class="d" d="m298,59.15l-39.39,223.48c25.37-.81,67.92,8.04,69.17-29.8,0,0,0-163.89,0-163.89,0-16.46-13.32-29.78-29.78-29.8Z"/>
      <path class="d" d="m258.38,114.7c1.07-6.36,8.55-48.18,9.8-55.55C268.47,34.34,272.62,1.81,238.38,0c0,0-148.99,0-148.99,0-34.21,1.8-30.08,34.33-29.82,59.15C34.13,59.12,2.31,54.1,0,88.95c0,0,0,163.89,0,163.89,1.75,29.52,26.29,31.18,49.99,29.8,10.44-59.13,34.45-195.32,44.58-252.83h143.79l-5.16,29.35h-114.01c-9.9,56.07-29.46,166.81-39.46,223.48h148.99l9.8-55.87h-78.93l5.68-31.57h69.45l9.48-52.7h-69.45l4.73-27.79h78.91Z"/>
    </g>
  </g>
</svg>